<svg width="1532" height="281" viewBox="0 0 1532 281" fill="none" xmlns="http://www.w3.org/2000/svg">
<path d="M48.2225 52.674V230H19.1359V52.674H48.2225ZM241.284 87.1186C252.34 87.1186 262.206 89.4149 270.881 94.0075C279.726 98.6002 286.615 105.404 291.547 114.419C296.65 123.434 299.202 134.321 299.202 147.078V230H270.37V151.415C270.37 138.828 267.224 129.218 260.93 122.584C254.636 115.78 246.046 112.378 235.16 112.378C224.274 112.378 215.599 115.78 209.135 122.584C202.842 129.218 199.695 138.828 199.695 151.415V230H170.864V151.415C170.864 138.828 167.717 129.218 161.423 122.584C155.13 115.78 146.54 112.378 135.654 112.378C124.767 112.378 116.092 115.78 109.629 122.584C103.335 129.218 100.188 138.828 100.188 151.415V230H71.1018V89.4149H100.188V105.489C104.951 99.7058 110.99 95.1982 118.304 91.9664C125.618 88.7346 133.442 87.1186 141.777 87.1186C153.003 87.1186 163.039 89.5 171.884 94.2627C180.729 99.0254 187.533 105.914 192.296 114.929C196.548 106.425 203.182 99.7058 212.197 94.773C221.212 89.6701 230.908 87.1186 241.284 87.1186ZM491.087 87.1186C502.143 87.1186 512.009 89.4149 520.684 94.0075C529.529 98.6002 536.418 105.404 541.351 114.419C546.453 123.434 549.005 134.321 549.005 147.078V230H520.173V151.415C520.173 138.828 517.027 129.218 510.733 122.584C504.44 115.78 495.85 112.378 484.963 112.378C474.077 112.378 465.402 115.78 458.939 122.584C452.645 129.218 449.498 138.828 449.498 151.415V230H420.667V151.415C420.667 138.828 417.52 129.218 411.226 122.584C404.933 115.78 396.343 112.378 385.457 112.378C374.571 112.378 365.896 115.78 359.432 122.584C353.138 129.218 349.992 138.828 349.992 151.415V230H320.905V89.4149H349.992V105.489C354.754 99.7058 360.793 95.1982 368.107 91.9664C375.421 88.7346 383.246 87.1186 391.58 87.1186C402.807 87.1186 412.842 89.5 421.687 94.2627C430.532 99.0254 437.336 105.914 442.099 114.929C446.351 106.425 452.985 99.7058 462 94.773C471.015 89.6701 480.711 87.1186 491.087 87.1186ZM631.688 232.296C618.42 232.296 606.429 229.32 595.712 223.366C584.996 217.243 576.577 208.738 570.453 197.852C564.33 186.795 561.268 174.038 561.268 159.58C561.268 145.292 564.415 132.62 570.708 121.563C577.002 110.507 585.592 102.002 596.478 96.0487C607.364 90.0953 619.526 87.1186 632.964 87.1186C646.401 87.1186 658.563 90.0953 669.449 96.0487C680.336 102.002 688.926 110.507 695.219 121.563C701.513 132.62 704.66 145.292 704.66 159.58C704.66 173.868 701.428 186.54 694.964 197.597C688.5 208.653 679.655 217.243 668.429 223.366C657.373 229.32 645.126 232.296 631.688 232.296ZM631.688 207.037C639.172 207.037 646.146 205.251 652.61 201.679C659.244 198.107 664.602 192.749 668.684 185.605C672.766 178.461 674.808 169.786 674.808 159.58C674.808 149.374 672.851 140.784 668.939 133.81C665.027 126.666 659.839 121.308 653.375 117.736C646.912 114.164 639.938 112.378 632.453 112.378C624.969 112.378 617.995 114.164 611.531 117.736C605.238 121.308 600.22 126.666 596.478 133.81C592.736 140.784 590.865 149.374 590.865 159.58C590.865 174.719 594.692 186.455 602.346 194.79C610.171 202.955 619.951 207.037 631.688 207.037ZM747.191 110.337C752.124 103.533 758.843 98.0048 767.347 93.7524C776.022 89.3299 785.633 87.1186 796.179 87.1186C808.596 87.1186 819.822 90.0953 829.858 96.0487C839.894 102.002 847.803 110.507 853.587 121.563C859.37 132.449 862.262 144.952 862.262 159.07C862.262 173.188 859.37 185.86 853.587 197.086C847.803 208.143 839.809 216.817 829.603 223.111C819.567 229.235 808.426 232.296 796.179 232.296C785.293 232.296 775.597 230.17 767.092 225.918C758.758 221.665 752.124 216.222 747.191 209.588V230H718.104V41.1925H747.191V110.337ZM832.665 159.07C832.665 149.374 830.623 141.039 826.541 134.065C822.629 126.921 817.356 121.563 810.722 117.991C804.258 114.249 797.284 112.378 789.8 112.378C782.486 112.378 775.512 114.249 768.878 117.991C762.415 121.733 757.142 127.176 753.059 134.321C749.147 141.465 747.191 149.884 747.191 159.58C747.191 169.275 749.147 177.78 753.059 185.094C757.142 192.238 762.415 197.682 768.878 201.424C775.512 205.166 782.486 207.037 789.8 207.037C797.284 207.037 804.258 205.166 810.722 201.424C817.356 197.511 822.629 191.898 826.541 184.584C830.623 177.27 832.665 168.765 832.665 159.07ZM890.515 70.7893C885.242 70.7893 880.819 69.0033 877.247 65.4313C873.675 61.8592 871.889 57.4367 871.889 52.1637C871.889 46.8907 873.675 42.4682 877.247 38.8962C880.819 35.3241 885.242 33.5381 890.515 33.5381C895.618 33.5381 899.955 35.3241 903.527 38.8962C907.099 42.4682 908.885 46.8907 908.885 52.1637C908.885 57.4367 907.099 61.8592 903.527 65.4313C899.955 69.0033 895.618 70.7893 890.515 70.7893ZM904.803 89.4149V230H875.716V89.4149H904.803ZM956.769 41.1925V230H927.682V41.1925H956.769ZM994.447 70.7893C989.174 70.7893 984.751 69.0033 981.179 65.4313C977.607 61.8592 975.821 57.4367 975.821 52.1637C975.821 46.8907 977.607 42.4682 981.179 38.8962C984.751 35.3241 989.174 33.5381 994.447 33.5381C999.55 33.5381 1003.89 35.3241 1007.46 38.8962C1011.03 42.4682 1012.82 46.8907 1012.82 52.1637C1012.82 57.4367 1011.03 61.8592 1007.46 65.4313C1003.89 69.0033 999.55 70.7893 994.447 70.7893ZM1008.73 89.4149V230H979.648V89.4149H1008.73ZM1021.92 159.07C1021.92 144.952 1024.81 132.449 1030.59 121.563C1036.55 110.677 1044.54 102.257 1054.58 96.3039C1064.78 90.1804 1076.01 87.1186 1088.26 87.1186C1099.31 87.1186 1108.92 89.3299 1117.09 93.7524C1125.42 98.0048 1132.06 103.363 1136.99 109.827V89.4149H1166.33V230H1136.99V209.078C1132.06 215.712 1125.34 221.24 1116.83 225.663C1108.33 230.085 1098.63 232.296 1087.75 232.296C1075.67 232.296 1064.61 229.235 1054.58 223.111C1044.54 216.817 1036.55 208.143 1030.59 197.086C1024.81 185.86 1021.92 173.188 1021.92 159.07ZM1136.99 159.58C1136.99 149.884 1134.95 141.465 1130.87 134.321C1126.95 127.176 1121.77 121.733 1115.3 117.991C1108.84 114.249 1101.86 112.378 1094.38 112.378C1086.9 112.378 1079.92 114.249 1073.46 117.991C1066.99 121.563 1061.72 126.921 1057.64 134.065C1053.73 141.039 1051.77 149.374 1051.77 159.07C1051.77 168.765 1053.73 177.27 1057.64 184.584C1061.72 191.898 1066.99 197.511 1073.46 201.424C1080.09 205.166 1087.07 207.037 1094.38 207.037C1101.86 207.037 1108.84 205.166 1115.3 201.424C1121.77 197.682 1126.95 192.238 1130.87 185.094C1134.95 177.78 1136.99 169.275 1136.99 159.58ZM1218.31 109.827C1222.57 102.682 1228.18 97.1543 1235.15 93.2421C1242.3 89.1598 1250.72 87.1186 1260.41 87.1186V117.226H1253.01C1241.62 117.226 1232.94 120.117 1226.99 125.901C1221.2 131.684 1218.31 141.72 1218.31 156.008V230H1189.23V89.4149H1218.31V109.827Z" fill="#0B4F6C"/>
<path d="M1286.64 70.7893C1281.36 70.7893 1276.94 69.0033 1273.37 65.4313C1269.8 61.8592 1268.01 57.4367 1268.01 52.1637C1268.01 46.8907 1269.8 42.4682 1273.37 38.8962C1276.94 35.3241 1281.36 33.5381 1286.64 33.5381C1291.74 33.5381 1296.08 35.3241 1299.65 38.8962C1303.22 42.4682 1305.01 46.8907 1305.01 52.1637C1305.01 57.4367 1303.22 61.8592 1299.65 65.4313C1296.08 69.0033 1291.74 70.7893 1286.64 70.7893ZM1300.93 89.4149V230H1271.84V89.4149H1300.93ZM1374.83 232.296C1363.78 232.296 1353.83 230.34 1344.98 226.428C1336.31 222.346 1329.42 216.903 1324.32 210.099C1319.21 203.125 1316.49 195.385 1316.15 186.88H1346.26C1346.77 192.834 1349.58 197.852 1354.68 201.934C1359.95 205.846 1366.5 207.802 1374.32 207.802C1382.49 207.802 1388.78 206.271 1393.2 203.21C1397.8 199.978 1400.09 195.896 1400.09 190.963C1400.09 185.69 1397.54 181.778 1392.44 179.226C1387.51 176.675 1379.6 173.868 1368.71 170.806C1358.16 167.915 1349.58 165.108 1342.94 162.386C1336.31 159.665 1330.52 155.498 1325.59 149.884C1320.83 144.271 1318.45 136.872 1318.45 127.687C1318.45 120.202 1320.66 113.399 1325.08 107.275C1329.5 100.982 1335.8 96.0487 1343.96 92.4767C1352.3 88.9046 1361.82 87.1186 1372.54 87.1186C1388.53 87.1186 1401.37 91.201 1411.07 99.3656C1420.93 107.36 1426.2 118.331 1426.88 132.279H1397.8C1397.29 125.986 1394.74 120.968 1390.14 117.226C1385.55 113.484 1379.34 111.613 1371.52 111.613C1363.86 111.613 1357.99 113.058 1353.91 115.95C1349.83 118.842 1347.79 122.669 1347.79 127.432C1347.79 131.174 1349.15 134.321 1351.87 136.872C1354.59 139.423 1357.91 141.465 1361.82 142.995C1365.73 144.356 1371.52 146.142 1379.17 148.354C1389.38 151.075 1397.71 153.882 1404.18 156.773C1410.81 159.495 1416.51 163.577 1421.27 169.02C1426.03 174.463 1428.5 181.692 1428.67 190.708C1428.67 198.702 1426.46 205.846 1422.04 212.14C1417.61 218.433 1411.32 223.366 1403.16 226.938C1395.16 230.51 1385.72 232.296 1374.83 232.296Z" fill="#F2C94C"/>
</svg>
