<?xml version="1.0" standalone="no"?>
<!DOCTYPE svg PUBLIC "-//W3C//DTD SVG 20010904//EN"
 "http://www.w3.org/TR/2001/REC-SVG-20010904/DTD/svg10.dtd">
<svg version="1.0" xmlns="http://www.w3.org/2000/svg"
 width="512.000000pt" height="512.000000pt" viewBox="0 0 512.000000 512.000000"
 preserveAspectRatio="xMidYMid meet">

<g transform="translate(0.000000,512.000000) scale(0.100000,-0.100000)"
fill="#000000" stroke="none">
<path d="M1515 4812 c-562 -169 -1033 -315 -1048 -325 -15 -9 -35 -29 -44 -44
-17 -26 -18 -97 -18 -1218 0 -1113 1 -1195 18 -1275 69 -320 240 -604 552
-915 332 -332 837 -680 1385 -953 193 -96 203 -97 350 -26 156 75 426 225 590
327 776 484 1244 988 1376 1481 43 163 45 236 42 1427 l-3 1126 -28 37 c-16
20 -41 42 -55 48 -70 27 -2055 618 -2075 617 -12 0 -481 -138 -1042 -307z
m1983 -278 l923 -277 -3 -1116 -3 -1116 -23 -80 c-31 -108 -128 -301 -204
-407 -213 -293 -554 -592 -996 -871 -140 -89 -411 -243 -535 -304 l-98 -48
-147 75 c-244 125 -592 338 -782 479 -310 230 -537 447 -698 669 -77 107 -174
300 -204 407 l-23 80 -3 1116 -3 1115 918 276 c505 152 927 277 938 277 11 1
435 -123 943 -275z"/>
</g>
</svg>
